<svg xmlns="http://www.w3.org/2000/svg" xmlns:xlink="http://www.w3.org/1999/xlink" width="199" height="70" viewBox="0 0 199 70">
  <defs>
    <clipPath id="clip-path">
      <rect id="Retângulo_4574" data-name="Retângulo 4574" width="199" height="70" fill="none"/>
    </clipPath>
  </defs>
  <g id="tribunafm-logo" transform="translate(-0.334)">
    <path id="Caminho_1171" data-name="Caminho 1171" d="M156.493,97.024v5.625H158V97.024Zm-5.231-1.682v8.989h1.51V95.342Zm7.847-.216v9.421h1.51V95.126Zm10.463-.388v10.2h1.51v-10.2Zm10.661,0v10.2h1.51v-10.2Zm-26.356-2.5v15.2h1.51v-15.2Zm18.311,0v15.2H173.7v-15.2Zm5.43,0v15.2h1.51v-15.2Zm-2.815,16.4h1.956v-17.6H174.8Zm-7.847-17.61v17.616h1.51V91.029Zm-5.232-.043v17.7h1.51v-17.7Zm2.616-1.5v20.7h1.509v-20.7Z" transform="translate(-68.021 -40.362)" fill="#85c1f5"/>
    <path id="Caminho_1172" data-name="Caminho 1172" d="M213.12,89.487v20.7h1.509v-20.7Z" transform="translate(-95.89 -40.362)" fill="#85c1f5"/>
    <path id="Caminho_1173" data-name="Caminho 1173" d="M209.943,94.9h-1.51v14.709h1.51V94.9Z" transform="translate(-93.78 -42.805)" fill="#85c1f5" fill-rule="evenodd"/>
    <g id="Grupo_5610" data-name="Grupo 5610" transform="translate(0.333 0)">
      <g id="Grupo_5609" data-name="Grupo 5609" clip-path="url(#clip-path)">
        <path id="Caminho_1174" data-name="Caminho 1174" d="M170.74,42.369V14.815a16.988,16.988,0,0,1,.92-5.688,15.4,15.4,0,0,1,2.76-4.8A12.461,12.461,0,0,1,178.9,1.1a16.27,16.27,0,0,1,11.662-.03,13.193,13.193,0,0,1,4.63,3.2,13.525,13.525,0,0,1,3.086,4.978,19.24,19.24,0,0,1,1.009,6.459V42.369h-5.638V23.229H178.219v-5.57h15.432V17.3a.171.171,0,0,1,.059-.119v-.948a18.623,18.623,0,0,0-.564-4.859,9.032,9.032,0,0,0-1.691-3.437,7.456,7.456,0,0,0-2.7-2.074,8.484,8.484,0,0,0-3.531-.711,10.337,10.337,0,0,0-3.264.474,6.349,6.349,0,0,0-2.374,1.363,9.334,9.334,0,0,0-1.573,1.9,9.924,9.924,0,0,0-.979,2.074,10.907,10.907,0,0,0-.3,1.067L176.5,13.1q-.059.534-.089.978t-.03.859V42.369Zm-35.233,0V6.46a6.475,6.475,0,0,1,.416-2.37,5.264,5.264,0,0,1,1.187-1.837,6.645,6.645,0,0,1,1.751-1.1A5.853,5.853,0,0,1,140.79.712a5.275,5.275,0,0,1,1.484.208A5.2,5.2,0,0,1,143.7,1.6a5.009,5.009,0,0,1,1.187,1.067,7.282,7.282,0,0,1,.95,1.541l14.482,30.221V.83H165.9V39.584a4.458,4.458,0,0,1-.3,1.719,2.168,2.168,0,0,1-.89,1.066,4.5,4.5,0,0,1-1.276.623,4.971,4.971,0,0,1-1.454.207H161.5c-.04-.039-.069-.059-.089-.059h-.089a5.693,5.693,0,0,1-1.336-.266,13.1,13.1,0,0,1-1.276-.5,2.75,2.75,0,0,1-1.009-.681,3.3,3.3,0,0,1-.653-1.037L141.621,8.771v33.6ZM103.539.83h6.113V27.437a17.278,17.278,0,0,0,.594,4.888,7.358,7.358,0,0,0,1.78,3.17,8.658,8.658,0,0,0,2.582,1.718,7.581,7.581,0,0,0,3,.593,8.6,8.6,0,0,0,3.323-.593,5.687,5.687,0,0,0,2.374-1.837,9.9,9.9,0,0,0,1.484-2.519,9.591,9.591,0,0,0,.653-2.815v-.119a.455.455,0,0,1,.059-.178V.83h6.113V28.385a17.847,17.847,0,0,1-1.068,6.518,11.175,11.175,0,0,1-3.146,4.5,13.637,13.637,0,0,1-4.541,2.608,16.352,16.352,0,0,1-5.252.829,14.922,14.922,0,0,1-5.253-.918,14.6,14.6,0,0,1-4.6-2.815,11.875,11.875,0,0,1-3.175-4.444,14.95,14.95,0,0,1-1.039-5.689ZM72.045,42.369V12.5a3.053,3.053,0,0,1,.059-.593c.04-.2.079-.395.119-.592A13.013,13.013,0,0,1,73.44,7.378a15,15,0,0,1,2.522-3.585,10.23,10.23,0,0,1,3.977-2.667A18.448,18.448,0,0,1,85.637,0a16.384,16.384,0,0,1,4.9.711,15.4,15.4,0,0,1,4.244,2.074,9.01,9.01,0,0,1,2.938,3.526A11.473,11.473,0,0,1,98.7,11.2a22.468,22.468,0,0,1-.208,3.318,6.373,6.373,0,0,1-.683,2.193,6.267,6.267,0,0,1-1.1,1.54,14.475,14.475,0,0,1-1.513,1.363.972.972,0,0,1-.148.119,1.942,1.942,0,0,1-.208.119.972.972,0,0,1-.148.119,1.842,1.842,0,0,1-.207.118,11.6,11.6,0,0,1,2.789,1.452,7.213,7.213,0,0,1,1.9,1.985,11.97,11.97,0,0,1,1.128,2.252,11.62,11.62,0,0,1,.593,2.311v.237a.524.524,0,0,0,.059.237v.711a.241.241,0,0,0,.059.178v1.067a.27.27,0,0,0,.03.118.263.263,0,0,1,.03.119,12.322,12.322,0,0,1-.831,4.622,11.037,11.037,0,0,1-2.493,3.733,10.917,10.917,0,0,1-3.65,2.459,11.58,11.58,0,0,1-4.363.8H80V36.8h7.479a8.506,8.506,0,0,0,2.938-.267A9.211,9.211,0,0,0,93,35.377a5.071,5.071,0,0,0,1.81-2.015,6.689,6.689,0,0,0,.624-3.022,7.48,7.48,0,0,0-.653-3.259,4.973,4.973,0,0,0-1.9-2.133,8.8,8.8,0,0,0-2.849-1.215,14.97,14.97,0,0,0-3.5-.385L80,23.229v-5.1h5.164a10.592,10.592,0,0,0,3.383-.266,5.8,5.8,0,0,0,2.315-1.156,7.55,7.55,0,0,0,1.425-1.6A4.948,4.948,0,0,0,93,13.334v-.119a.454.454,0,0,1,.059-.178v-.415a.456.456,0,0,1,.059-.177v-.3a7.577,7.577,0,0,0-.5-2.815A6.09,6.09,0,0,0,91.1,7.112,5.67,5.67,0,0,0,88.753,5.63a9.653,9.653,0,0,0-3.116-.474,9.22,9.22,0,0,0-3.294.534,5.026,5.026,0,0,0-2.226,1.6,9.28,9.28,0,0,0-1.306,2.252,8.744,8.744,0,0,0-.593,2.429,1.037,1.037,0,0,0-.059.326V42.369ZM60.673.83h5.639V42.37H60.673ZM28.229,42.369V16.237a23.942,23.942,0,0,1,.861-6.726A13.339,13.339,0,0,1,31.731,4.5a11.354,11.354,0,0,1,4.363-3.2A17.909,17.909,0,0,1,42.237,0,13.567,13.567,0,0,1,47.015.83a12.13,12.13,0,0,1,4.066,2.548,11.17,11.17,0,0,1,2.849,3.7,10.216,10.216,0,0,1,.95,4.355v.711a12.67,12.67,0,0,1-.3,2.755,14.5,14.5,0,0,1-.831,2.578,7.614,7.614,0,0,1-1.484,2.133,6.929,6.929,0,0,1-2.078,1.422,9.058,9.058,0,0,1,2.137,1.333,7.86,7.86,0,0,1,1.662,1.985,10.232,10.232,0,0,1,1.365,5.1V42.369H49.715V30.222a5.749,5.749,0,0,0-.564-2.608,4.708,4.708,0,0,0-1.632-1.837,9.3,9.3,0,0,0-2.552-1.1,12.035,12.035,0,0,0-3.146-.385l-5.638-.118V19.022h4.689a.525.525,0,0,0,.238.148.978.978,0,0,0,.238.03h1.128a.463.463,0,0,0,.178-.059h.3a8.47,8.47,0,0,0,2.285-.682,7.67,7.67,0,0,0,2.048-1.392A5.136,5.136,0,0,0,48.8,14.993a7.527,7.527,0,0,0,.5-2.844,7.49,7.49,0,0,0-.445-2.7,4.325,4.325,0,0,0-1.336-1.866,9.19,9.19,0,0,0-1.84-1.155,7.726,7.726,0,0,0-2.018-.623,4.012,4.012,0,0,0-.475-.089,3.831,3.831,0,0,0-.475-.03h-.238A.242.242,0,0,1,42.3,5.63h-.475A9.353,9.353,0,0,0,39,6.015a5.319,5.319,0,0,0-2.048,1.156,9.243,9.243,0,0,0-1.484,1.6,8.179,8.179,0,0,0-.95,1.719,6.815,6.815,0,0,0-.3.829l-.238.829q-.059.415-.089.77t-.03.652v28.8ZM0,5.986V.83H26.65V5.986H16.381V42.369H10.268V5.986Z" transform="translate(-0.29 0)" fill="#0A4EA3"/>
        <path id="Caminho_1175" data-name="Caminho 1175" d="M113.935,100.071V98.746h6.85v1.325h-2.639v9.352h-1.571v-9.352Zm-5.089,9.352v-7.082a5.055,5.055,0,0,1,.282-1.82,2.037,2.037,0,0,1,.847-1.058,4.448,4.448,0,0,1,1.182-.518,4.913,4.913,0,0,1,1.289-.167L114,98.746v1.325h-1.434a4.416,4.416,0,0,0-.915.145,2.515,2.515,0,0,0-.732.327,1.284,1.284,0,0,0-.481.617,2.668,2.668,0,0,0-.16.982v1.28H114v1.325H110.28v4.676Zm-10.032-5.514v.259a3.992,3.992,0,0,0,.26,1.531,4.293,4.293,0,0,0,.839,1.333,3.573,3.573,0,0,0,1.266.913,4.059,4.059,0,0,0,1.6.3q.168,0,.359-.015c.128-.01.257-.026.389-.046s.287-.048.434-.083a3.288,3.288,0,0,0,.45-.145,3.541,3.541,0,0,0,.839-.457,4.547,4.547,0,0,0,.763-.716,2.931,2.931,0,0,0,.549-1.089,5.6,5.6,0,0,0,.183-1.515,5.124,5.124,0,0,0-.236-1.554,4.928,4.928,0,0,0-.725-1.416,2.948,2.948,0,0,0-1.259-1.013,4.653,4.653,0,0,0-1.869-.343,3.88,3.88,0,0,0-1.609.319,3.206,3.206,0,0,0-1.212.96,4.591,4.591,0,0,0-.77,1.341,4.291,4.291,0,0,0-.252,1.462Zm-1.556,0a5.57,5.57,0,0,1,.4-2.147,4.453,4.453,0,0,1,1.19-1.66,6.342,6.342,0,0,1,1.663-1.1,5.249,5.249,0,0,1,1.815-.449h.046a.118.118,0,0,0,.046-.015h.244q.2,0,.4.015c.137.01.277.025.419.046s.288.046.435.076.3.066.45.106a5.259,5.259,0,0,1,1.372.64,7.43,7.43,0,0,1,1.266,1.051,4.126,4.126,0,0,1,.931,1.523,6.973,6.973,0,0,1,.366,2.071,5.689,5.689,0,0,1-.366,2.041,6.1,6.1,0,0,1-1.083,1.8,4.428,4.428,0,0,1-1.7,1.241,5.888,5.888,0,0,1-2.25.4,6.532,6.532,0,0,1-2.174-.35,5.714,5.714,0,0,1-1.823-1.051,4.461,4.461,0,0,1-1.236-1.767,6.654,6.654,0,0,1-.412-2.437Zm-7.5,4.189H93.6a2.01,2.01,0,0,0,.641-.038,1.615,1.615,0,0,0,.5-.205,1.092,1.092,0,0,0,.351-.366,1.442,1.442,0,0,0,.183-.548,1.46,1.46,0,0,0-.091-.518,1.733,1.733,0,0,0-.275-.472,2.333,2.333,0,0,0-.457-.427,5.137,5.137,0,0,0-.625-.38l-.122-.061-.122-.061-.122-.061-.122-.061h-.031a.031.031,0,0,1-.023-.008.029.029,0,0,1-.008-.023q-.641-.3-1.228-.64t-1.122-.7a2.542,2.542,0,0,1-.785-.853,2.243,2.243,0,0,1-.267-1.1v-.167a2.988,2.988,0,0,1,.16-1.021,1.72,1.72,0,0,1,.5-.731,3.565,3.565,0,0,1,.7-.5,2.982,2.982,0,0,1,.778-.29,1.056,1.056,0,0,1,.122-.023.955.955,0,0,0,.122-.023.258.258,0,0,0,.061-.008c.02,0,.046-.013.076-.023a.258.258,0,0,0,.061-.008.255.255,0,0,1,.061-.008l3.722-.031v1.325H92.763a2.318,2.318,0,0,0-.572.122,1.176,1.176,0,0,0-.435.274,1.327,1.327,0,0,0-.274.38,1.474,1.474,0,0,0-.122.411.032.032,0,0,1-.008.023l-.008.008v.122a1.388,1.388,0,0,0,.023.259.931.931,0,0,0,.084.244.943.943,0,0,0,.152.2.93.93,0,0,0,.2.152q.351.244.679.442t.618.35q.305.152.58.3c.183.1.366.19.549.282.051.031.1.058.145.084s.089.048.129.069c.02.01.043.022.069.038a.392.392,0,0,0,.084.038.2.2,0,0,0,.069.046c.025.01.048.02.068.031l.1.069a.877.877,0,0,0,.114.069c.03.02.066.043.107.068a1.364,1.364,0,0,0,.122.069,3.716,3.716,0,0,1,.526.427,4.628,4.628,0,0,1,.481.548,2.3,2.3,0,0,1,.351.686,2.676,2.676,0,0,1,.122.822c0,.071,0,.147-.008.228s-.013.163-.023.244-.02.165-.031.251a2.03,2.03,0,0,1-.046.251,2.532,2.532,0,0,1-.275.64,2.709,2.709,0,0,1-.473.579,1.762,1.762,0,0,1-.755.4,4.231,4.231,0,0,1-1.121.13H89.758Z" transform="translate(-40.694 -44.442)" fill="#85c1f5"/>
        <path id="Caminho_1176" data-name="Caminho 1176" d="M235.964,110.657l1.9-14.923a3.262,3.262,0,0,1,.2-.876,1.637,1.637,0,0,1,.468-.66,2.213,2.213,0,0,1,.625-.408,2.112,2.112,0,0,1,.7-.168h.12a1.869,1.869,0,0,1,.613.156,2.488,2.488,0,0,1,.589.372,2.147,2.147,0,0,1,.493.6,4.068,4.068,0,0,1,.349.84l3.412,11.3,3.221-11.157a4.482,4.482,0,0,1,.312-.876,1.872,1.872,0,0,1,.481-.636,2.887,2.887,0,0,1,.577-.42,1.487,1.487,0,0,1,.6-.18h.036c.008,0,.02-.008.036-.024h.145a1.952,1.952,0,0,1,.685.12,1.857,1.857,0,0,1,.613.384,1.972,1.972,0,0,1,.468.564,1.684,1.684,0,0,1,.2.732l1.9,15.259h-2.475l-1.514-13.8-3.773,12.668a2.046,2.046,0,0,1-.217.588,1.155,1.155,0,0,1-.361.4,1.8,1.8,0,0,1-.432.216,2.11,2.11,0,0,1-.457.1h-.1a1.834,1.834,0,0,1-.469-.06,2.978,2.978,0,0,1-.444-.156,1.2,1.2,0,0,1-.349-.348,1.636,1.636,0,0,1-.2-.492l-3.989-12.908-1.514,13.8Zm-8.017,0V99.5a7.956,7.956,0,0,1,.445-2.867,3.211,3.211,0,0,1,1.333-1.668,7,7,0,0,1,1.862-.816,7.74,7.74,0,0,1,2.031-.263l2.451-.048v2.088h-2.259a6.953,6.953,0,0,0-1.442.228,3.98,3.98,0,0,0-1.154.516,2.02,2.02,0,0,0-.757.972,4.2,4.2,0,0,0-.252,1.548V101.2h5.864v2.087h-5.864v7.366Z" transform="translate(-102.899 -42.216)" fill="#0A4EA3"/>
        <path id="Caminho_1177" data-name="Caminho 1177" d="M282.968,93.518a5.023,5.023,0,0,1,.03-.53c.02-.192.041-.389.06-.59q.061-.3.121-.62a6.16,6.16,0,0,1,.152-.621,7.306,7.306,0,0,1,.894-1.861,8.971,8.971,0,0,1,1.5-1.71,5.874,5.874,0,0,1,2.243-1.226,10.584,10.584,0,0,1,3.092-.409,8.225,8.225,0,0,1,2.955.515,7.2,7.2,0,0,1,3.956,3.934,8.069,8.069,0,0,1,.516,2.936q0,.363-.015.7a4.159,4.159,0,0,1-.076.636,4.243,4.243,0,0,1-.106.605q-.076.3-.167.575c-.041.121-.086.242-.136.363s-.106.242-.167.363q-.092.212-.182.394l-.182.363a9.261,9.261,0,0,1-.5.817q-.288.424-.621.908l-5.729,8.051H287.03l6.669-9.292a7.065,7.065,0,0,0,.864-1.18,4.731,4.731,0,0,0,.5-1.211,10.344,10.344,0,0,0,.228-1.2,8.909,8.909,0,0,0,.076-1.135,4.471,4.471,0,0,0-1.273-3.148,4.005,4.005,0,0,0-1.455-1.029,4.7,4.7,0,0,0-1.789-.333,5.738,5.738,0,0,0-1.85.288,4.924,4.924,0,0,0-1.576.893,3.649,3.649,0,0,0-1.122,1.6,8.362,8.362,0,0,0-.485,2.452,4.263,4.263,0,0,0,.409,1.877,4.589,4.589,0,0,0,1.258,1.543,6.047,6.047,0,0,0,1.789,1.014,6.144,6.144,0,0,0,2.092.348h.424l-1.667,2.3a9.256,9.256,0,0,1-2.728-.469,5.846,5.846,0,0,1-1.94-1.1,8.137,8.137,0,0,1-1.273-1.468,6.609,6.609,0,0,1-.985-2.3q-.076-.347-.137-.681-.03-.333-.06-.666t-.03-.636Z" transform="translate(-127.666 -38.767)" fill="#0A4EA3"/>
        <path id="Caminho_1178" data-name="Caminho 1178" d="M325.727,99.324v-6.9a5.755,5.755,0,0,0-.334-2.073,3,3,0,0,0-.97-1.347,5.1,5.1,0,0,0-1.38-.772,4.939,4.939,0,0,0-1.5-.287h-.091a5.218,5.218,0,0,0-2.122.378,2.762,2.762,0,0,0-1.3,1.165,5.692,5.692,0,0,0-.667,1.695,9.045,9.045,0,0,0-.212,2v5.9a8.2,8.2,0,0,0,.288,2.346,3.823,3.823,0,0,0,.864,1.558,4.023,4.023,0,0,0,1.38.862,5.055,5.055,0,0,0,1.773.288,4.833,4.833,0,0,0,1.591-.257,4.939,4.939,0,0,0,1.38-.742,3.276,3.276,0,0,0,.97-1.317,5.386,5.386,0,0,0,.364-1.921v-.273a.086.086,0,0,1-.03-.06v-.242Zm-11.7.242V92.635a8.077,8.077,0,0,1,.545-3.026,6.951,6.951,0,0,1,1.637-2.421,7.411,7.411,0,0,1,2.41-1.589,7.525,7.525,0,0,1,2.834-.53,8.22,8.22,0,0,1,2.364.318,5.7,5.7,0,0,1,1.88.954,10.6,10.6,0,0,1,1.425,1.316,7.08,7.08,0,0,1,1,1.438q.182.394.334.756a5.144,5.144,0,0,1,.242.726,6.514,6.514,0,0,1,.136.7,4.532,4.532,0,0,1,.046.606v.182c-.02.02-.03.035-.03.046v7.687c0,.01.01.026.03.046v.212q0,.242-.015.5a2.681,2.681,0,0,1-.076.5,4.72,4.72,0,0,1-.091.5c-.041.172-.081.338-.122.5a7.477,7.477,0,0,1-.879,1.892,8.326,8.326,0,0,1-1.455,1.68,5.175,5.175,0,0,1-2,1.2,8.237,8.237,0,0,1-2.577.378,9.763,9.763,0,0,1-2.865-.378,5.372,5.372,0,0,1-2.107-1.2,10.222,10.222,0,0,1-1.44-1.71,6.6,6.6,0,0,1-.864-1.862q-.03-.152-.076-.3a2.739,2.739,0,0,1-.076-.333l-.06-.3-.061-.3c-.02-.2-.04-.4-.061-.591a5.59,5.59,0,0,1-.03-.59Z" transform="translate(-141.646 -38.37)" fill="#0A4EA3"/>
        <path id="Caminho_1179" data-name="Caminho 1179" d="M344.232,119.966a1.9,1.9,0,0,1,.136-.726,1.547,1.547,0,0,1,.409-.575,1.98,1.98,0,0,1,.576-.363,2.266,2.266,0,0,1,.637-.151h.091a1.78,1.78,0,0,1,.621.106,1.757,1.757,0,0,1,.561.348,1.277,1.277,0,0,1,.41.575,2.7,2.7,0,0,1,0,1.7,1.506,1.506,0,0,1-.41.606,3.127,3.127,0,0,1-.576.3,1.7,1.7,0,0,1-.637.121,2.06,2.06,0,0,1-.652-.105,1.985,1.985,0,0,1-.591-.318,1.389,1.389,0,0,1-.44-.606,2.411,2.411,0,0,1-.136-.848Z" transform="translate(-155.244 -53.29)" fill="#0A4EA3"/>
        <path id="Caminho_1180" data-name="Caminho 1180" d="M349.452,88.474l.727-2.633h5.973v21.217h-2.88V88.474Z" transform="translate(-157.593 -38.718)" fill="#0A4EA3"/>
      </g>
    </g>
  </g>
</svg>
