<svg xmlns="http://www.w3.org/2000/svg" width="234" height="22" viewBox="0 0 234 22">
  <path id="logo_gazeta_web" d="M208.95,12.135l.358-2.081c1.241-7.075-2.031-9.6-7.4-9.6s-9.462,2.522-10.7,9.586l-.358,2.081c-1.218,7.047,2,9.6,7.4,9.6s9.5-2.55,10.709-9.6ZM144.9,21.526l.66-3.833h-9.231l.888-5.133h8.621l.632-3.632h-8.621l.705-4.112-2.043-.675H147.9l.626-3.7H133.9l-3.636,21.085Zm-75.041,0,.66-3.833h-9.23l.888-5.133H70.8l.632-3.632H62.812l.711-4.112L61.458,4.14H72.839l.66-3.7H58.857L55.2,21.526ZM12.286,4.112c6.214.876,6.4-.558,7.079-3.348A36.259,36.259,0,0,0,11.979,0C7.3,0,2.162,1.278.706,9.725L.273,12.219C-1.11,20.242,2.953,22,8.069,22a47.322,47.322,0,0,0,7.864-.681l1.878-11.042L14.1,11.561a2.932,2.932,0,0,0-1.273.858,2.849,2.849,0,0,0-.651,1.374l-.7,4.062c-.7.056-1.6.056-2.464.056-2.982,0-4.171-1.161-3.414-5.669l.432-2.494c.848-4.932,2.845-5.613,6.26-5.613ZM133.249.385h-3.693a2.714,2.714,0,0,0-1.5.652,2.624,2.624,0,0,0-.835,1.384l-3.141,9.552c-.455,1.451-.859,2.79-1.2,4.034h-.114c-.051-1.216-.114-2.527-.205-3.694l-.438-5.959C121.9,4.837,121.088,4.4,119.717,4.4h-3.346l-3.312,7.85c-.5,1.2-.985,2.505-1.491,3.755h-.119c.068-1.222.141-2.673.175-4.04l.171-8.62c-.08-2.115-1.639-2.94-3.6-2.991h-1.759l-.056,21.2h5.2a2.428,2.428,0,0,0,1.171-.393,2.358,2.358,0,0,0,.815-.913L118.362,8.6h.091l.9,12.961h5.3a1.943,1.943,0,0,0,1.094-.381,1.877,1.877,0,0,0,.669-.93L133.244.385Zm73.887,21.208h3.687a2.711,2.711,0,0,0,1.5-.648,2.623,2.623,0,0,0,.838-1.383l3.124-9.519c.455-1.451.859-2.79,1.189-4.028h.12c.051,1.216.114,2.522.2,3.688l.438,5.92c.228,1.512,1.036,1.947,2.413,1.947H224L227.3,9.759c.5-1.194.99-2.5,1.5-3.749h.114c-.063,1.244-.154,2.667-.154,4.034l-.17,8.587c.08,2.109,1.633,2.929,3.591,2.979h1.758L234,.463h-5.241a2.411,2.411,0,0,0-1.168.389,2.353,2.353,0,0,0-.812.911l-4.791,11.628h-.056L221,.458h-5.3a1.937,1.937,0,0,0-1.081.384,1.883,1.883,0,0,0-.66.922ZM169.39,14.9a3.59,3.59,0,0,1,1.969.583,3.49,3.49,0,0,1,1.306,1.557,3.414,3.414,0,0,1,.2,2.006,3.462,3.462,0,0,1-.969,1.778,3.566,3.566,0,0,1-1.814.95,3.606,3.606,0,0,1-2.046-.2,3.525,3.525,0,0,1-1.588-1.281,3.423,3.423,0,0,1,.44-4.38A3.574,3.574,0,0,1,169.39,14.9Zm-64.223,6.628L102.89,1.936c-.21-1.077-.848-1.423-2.071-1.451H94.383l-9.594,21.04h4.183a1.793,1.793,0,0,0,1.076-.2,1.743,1.743,0,0,0,.745-.788l2.014-4.307H98.5l.415-2.315.671,7.616Zm-6.345-9.089H94.2l3.813-8.81ZM37.159,21.526,34.911,1.936C34.712.859,34.063.513,32.84.485H26.381L16.77,21.526h4.188a1.806,1.806,0,0,0,1.065-.212,1.755,1.755,0,0,0,.739-.781l2.009-4.307h5.69l.415-2.315.677,7.616Zm-6.345-9.089H26.176l3.83-8.81ZM54.105,21.52l.683-3.945h-9.8L56.774,4.536l.415-2.41c.137-1.088-.569-1.607-2.117-1.674H41.928l-.671,3.861H52.228l-2.236.709L38.724,17.492,38.03,21.52ZM91.765,4.307,92.431.452H74.546l-.66,3.811h8.433l-2.362.843L77.112,21.52H80.7a2.524,2.524,0,0,0,1.347-.557,2.445,2.445,0,0,0,.8-1.2L85.517,4.307Zm73.322,11.031.051-.313a3.747,3.747,0,0,0-1.889-4.307,5.791,5.791,0,0,0,2.19-1.768,5.645,5.645,0,0,0,1.076-2.573l.046-.251C167.392,1.306,163.887.2,157.576.2c-2.31,0-3.852.056-7.01.251L146.93,21.52c2.918.2,4.438.251,6.868.251C159.812,21.771,164.16,20.694,165.088,15.338Zm-5.23,0C159.471,17.57,157.952,18,154.885,18c-.808,0-1.355,0-2.135-.028l.968-5.58h3c2.845,0,3.482.937,3.186,2.639l-.051.312Zm1.451-8.76c-.284,1.64-1.1,2.55-4.051,2.55h-2.982l.785-4.536-1.821-.558h4.115c2.891,0,4.353.251,3.983,2.321l-.039.229Zm42.5,5.579c-.746,4.335-2.43,5.646-4.888,5.646s-3.66-1.311-2.914-5.646l.358-2.053c.729-4.3,2.4-5.641,4.854-5.641s3.677,1.367,2.943,5.619l-.353,2.053ZM189.375,20.94a5.753,5.753,0,0,0-4.246-3.348c-.671.056-1.53.056-2.361.056-2.845,0-3.983-1.116-3.244-5.434l.409-2.388c.814-4.72,2.732-5.362,5.97-5.362,1.661,0,4.763.167,6.186.245l.6-3.448a35.263,35.263,0,0,0-7.074-.742c-4.489,0-9.406,1.222-10.812,9.312l-.415,2.388c-1.315,7.689,2.589,9.368,7.483,9.368A45.884,45.884,0,0,0,189.375,20.94Z" fill="#006eb1" fill-rule="evenodd"/>
</svg>
